<?xml version="1.0" standalone="no"?>
<!DOCTYPE svg PUBLIC "-//W3C//DTD SVG 1.1//EN" "http://www.w3.org/Graphics/SVG/1.1/DTD/svg11.dtd" >
<!--
2013-9-30: Created.
-->
<svg>
<metadata>
Created by iconfont
</metadata>
<defs>

<font id="iconfont" horiz-adv-x="1024" >
  <font-face
    font-family="iconfont"
    font-weight="500"
    font-stretch="normal"
    units-per-em="1024"
    ascent="896"
    descent="-128"
  />
    <missing-glyph />
    
    <glyph glyph-name="tmall" unicode="&#59288;" d="M192-64l128 0c0 70.656-28.608 128-64 128S192 6.655999999999949 192-64zM908.416 252.096c-34.944 6.464-74.432-24.768-109.312-86.016-34.752-60.864-77.76-101.504-174.528-101.504L399.04 64.57600000000002c-96.832 0-139.776 40.64-174.592 101.504C189.632 227.39200000000005 149.76 258.624 115.2 252.096c-24.384-4.608-43.968-28.992-51.2-62.144L64 64c0-47.936 26.688-89.28 65.664-111.168C137.984 15.488000000000056 191.04 64 256 64c70.656 0 128-57.344 128-128l64 0c0 35.392 28.608 64 64 64s64-28.608 64-64l64 0c0 70.656 57.344 128 128 128 64.96 0 118.016-48.512 126.336-111.168C933.312-25.279999999999973 960 16.063999999999965 960 64l0 124.8C952.96 222.59199999999998 933.12 247.42399999999998 908.416 252.096zM704-64l128 0c0 70.656-28.608 128-64 128S704 6.655999999999949 704-64zM832 832L192 832C121.344 832 64 774.656 64 704l0-401.856c12.288 8.064 25.472 14.272 39.872 17.024 29.44 5.76 105.344 5.312 175.488-117.696 22.848-40.256 44.864-68.672 119.68-68.672L624.64 132.79999999999995c74.752 0 96.768 28.416 119.68 68.672 70.144 122.944 146.048 123.456 175.424 117.696C934.272 316.352 947.648 310.01599999999996 960 301.82399999999996L960 704C960 774.656 902.656 832 832 832zM792.896 577.7919999999999C764.352 448.704 649.6 352 512 352S259.648 448.704 231.104 577.7919999999999C209.088 582.0799999999999 192 600.64 192 624 192 650.496 213.504 672 240 672S288 650.496 288 624c0-17.984-10.304-33.152-25.024-41.344C289.152 468.992 390.4 384 512 384s222.848 84.992 249.024 198.656C746.304 590.848 736 606.0160000000001 736 624c0 26.496 21.504 48 48 48S832 650.496 832 624C832 600.64 814.912 582.0799999999999 792.896 577.7919999999999z"  horiz-adv-x="1024" />

    
    <glyph glyph-name="taobao" unicode="&#58932;" d="M822.558082 832.796516L201.338564 832.796516c-75.092255 0-135.952368-60.838623-135.952368-135.974881l0-621.175515c0-75.136258 60.860113-135.972834 135.952368-135.972834L822.558082-60.32671400000004c75.092255 0 135.950322 60.836577 135.950321 135.972834L958.508403 696.821635c0 75.136258-60.858066 135.974881-135.950321 135.974881zM249.361301 662.261515c38.038338 0 68.844971-27.779693 68.844971-61.784159 0-33.960463-30.806633-61.696154-68.844971-61.696154-38.040385 0-68.847018 27.735691-68.847018 61.696154 0 34.004465 30.806633 61.784158 68.847018 61.784159z m57.446363-370.868679c-18.161638-56.287981-13.652951-35.378765-85.784782-192.0889l-104.502075 65.173348s116.5249 106.006336 140.525524 154.479327c25.266453 51.091632-27.994588 78.354556-27.994588 78.354556l-80.029708 49.889247 43.234687 66.635653c60.365856-44.780903 64.874543-48.600905 105.619526-89.38989 31.513738-31.599695 27.563776-75.479065 8.931416-133.053341z m567.936987-73.076343C854.351182 27.172104999999988 605.716428 98.18648599999995 605.716428 98.18648599999995l13.482059 54.698786 56.329937-12.408611c106.561991-6.783497 94.971002 86.342484 94.971001 86.342484L770.499425 497.434515c0 102.656031-95.399767 113.348558-270.357497 50.748825l41.36613-13.824867c-3.541663-12.021801-16.208147-30.613228-33.014928-54.097082l238.500952 0 0-47.013757L605.973278 433.247634l0-47.013757 141.019781 0 0-47.013756L605.973278 339.22012099999995l0-106.605993c23.485901 6.612605 40.401152 15.500019 56.287981 27.306926l-10.413164 43.320644 62.621223 19.235087 51.777247-126.35478-76.078723-31.643697-13.482059 50.320059c-33.960463-26.062586-104.803951-63.758116-228.281193-60.451814-132.046409-3.350304-98.149391 154.264433-98.149391 154.264433l3.369747 7.126304 92.803639 0c-0.64366-23.527856-8.650007-56.932664 2.360768-74.27668 8.931416-14.255679 37.653575-19.405979 52.509934-20.094664 1.63115-0.215918-12.859889-2.87549 10.648524-2.963495L511.947811 339.22012099999995 370.928031 339.22012099999995l0 47.013756 141.01978 0L511.947811 433.247634l-45.596477 0c-30.311353-23.527856-57.919131-56.073086-57.919131-56.073086l-40.61707 36.879955c28.832675 30.355355 57.725726 79.042217 75.479066 111.200638-14.488992-5.92392-29.388331-11.848862-44.736901-18.632359a690.397063 690.397063 0 0 0-51.478441-57.576323c0.685615-1.072425-66.398246 37.653575-66.398246 37.653574 69.361741 59.293431 108.215654 186.120978 108.215653 186.120978l96.560197-26.961048s-8.113795-18.764366-24.473392-47.486524c386.196783 109.35357 408.607188-67.064418 408.607189-67.064419s25.461905-121.804137 5.154393-312.992527z"  horiz-adv-x="1024" />

    
    <glyph glyph-name="rules" unicode="&#58960;" d="M625.568569 604.979904c-30.490431 27.240411-69.745481 40.872896-117.763101 40.872896-22.662139 0-44.654013-3.641947-65.963341-10.926864-21.321608-7.283894-40.60786-18.615986-57.870012-33.993209-17.275455-15.378246-29.541827-32.374338-36.826743-50.990325-7.283894-18.615986-11.470239-44.388976-12.545734-77.29441l52.609195 0c6.475482 85.249593 45.856397 127.880529 118.16833 127.880529 33.449833 0 60.019978-9.181103 79.722716-27.51875 19.690458-18.349927 29.541827-42.630936 29.541827-72.843028 0-19.968797-3.920286-36.560684-11.736299-49.776683-7.828292-13.228279-27.252691-35.751249-58.274218-67.582211-31.033807-31.843242-51.129494-58.679447-60.298318-80.532151-9.181103-21.852704-14.302751-48.701189-15.378246-80.532151l55.846936 0c0 35.068703 3.768837 60.159148 11.33107 75.271334 7.549953 15.099906 28.049846 38.571481 61.511959 70.415746 30.756491 28.593222 50.711985 51.256384 59.893088 67.987441 9.168824 16.718777 13.759375 36.687574 13.759375 59.893088C671.298076 541.165506 656.04672 577.72619 625.568569 604.979904zM468.146213 145.66175299999998l62.321394 0 0-66.36857-62.321394 0 0 66.36857ZM509.287215 850.601021c-263.961834 0-478.670917-211.665771-478.670917-471.845465 0-136.197962 59.687404-265.744433 163.80267-355.38401 36.690644-31.647791 77.771271-57.426921 122.069173-76.641541 60.861136-26.430976 125.764332-39.819914 192.798051-39.819914 263.961834 0 478.713896 211.665771 478.713896 471.845465S773.249049 850.601021 509.287215 850.601021zM509.287215-39.70709499999998c-59.687404 0-117.374244 11.955286-171.540911 35.472909-39.34203 17.041118-75.858712 39.950897-108.462271 68.077491C136.949069 143.354198 84.000136 258.12003500000003 84.000136 378.75453200000004c0 230.749408 190.798511 418.461627 425.287079 418.461627 234.531548 0 425.330058-187.712219 425.330058-418.461627S743.818763-39.70709499999998 509.287215-39.70709499999998z"  horiz-adv-x="1024" />

    
    <glyph glyph-name="express" unicode="&#58949;" d="M243.07076044 569.29396562l-218.7540921-218.75282104 0-200.24386288c0-34.54361366 28.26122196-62.80458116 62.79822325-62.80458116l41.05487074 0c15.79307308-49.14785077 61.8789422-84.72746775 116.28055586-84.72746775 54.39881579 0 100.48239596 35.57987017 116.27419799 84.72746775l67.64638332 0c15.42307172 0 29.59246373 5.66063678 40.55899258 14.97678188 10.65120137-8.32439011 24.02083122-13.30859806 38.51292394-13.30859806l115.29515749 0c15.27430928-50.02008819 61.78358133-86.39565157 116.79677751-86.39565157 55.01421279 0 101.52246824 36.3755634 116.79932093 86.39565157l80.41460176 0c34.53700129 0 62.7931377 28.25105085 62.7931377 62.79440877l0.13604916 495.24591233c0 0-2.34715478 65.33610107-66.16510678 65.33610107-14.6919703 0-426.06993648-0.36364346-426.06993649-0.36364345-34.53852682 0-62.79440877-28.25995089-62.79440877-62.79695219l0-82.2480783c-5.20036009 1.4049868-10.65628819 2.16533304-16.27750776 2.16533303L243.07076044 569.29396562 243.07076044 569.29396562zM739.53500549 48.78244115999996c-42.02246776 0-76.09029232 34.06299345-76.0902923 76.09665021 0 42.02501117 34.06528115 76.08775017 76.0902923 76.08775017 42.01992562 0 76.08775017-34.06782456 76.08775017-76.08775017C815.62275566 82.84543463 781.55467664 48.78244115999996 739.53500549 48.78244115999996L739.53500549 48.78244115999996zM496.43712571 178.70980949L496.43712571 622.6275332800001c0 17.26544957 14.12743268 31.39288223 31.39288223 31.39288222l124.0009924 0 260.03376181 0.17165061c0 0 36.47626557 0.22378108 36.47626556-36.08337729 0-36.30588731-0.5925101-439.39887805-0.59251009-439.39887805 0-17.27689302-14.12743268-31.40050994-31.39796779-31.40050993l-56.76911193 0c-10.53422591 56.72817045-60.27179016 99.67882058-120.04668433 99.67882058-59.77743756 0-109.51118734-42.95065011-120.04922774-99.67882058l-91.64941319 0C510.56455837 147.30929957 496.43712571 161.43291648000002 496.43712571 178.70980949L496.43712571 178.70980949zM111.31144111 370.52120687l72.9484622 72.94337538 165.36203609 0c12.81526333 0 23.29862984-10.48336651 23.29862986-23.30371541l0-42.88326171c0-12.81526333-10.48336651-23.30244434-23.29862986-23.30244432L133.59542776 353.97516081000003C123.13494815 353.97541526 114.22440585 360.97492150999994 111.31144111 370.52120687L111.31144111 370.52120687zM244.45031819 48.78244115999996c-42.03264014 0-76.0941068 34.06299345-76.0941068 76.09665021 0 42.02501117 34.06935009 76.08775017 76.0941068 76.08775017 42.01865328 0 76.08139226-34.06782456 76.08139226-76.08775017C320.53196493 82.84543463 286.46897147 48.78244115999996 244.45031819 48.78244115999996L244.45031819 48.78244115999996zM73.76967421 167.07193867L73.76967421 332.98071103999996l7.03637876 7.04146559c8.28370308-13.0733748 22.86124007-21.79828087 39.39558694-21.79828088l238.70745428 0c25.62671219 0 46.60081971 20.96927515 46.6008197 46.60234526L405.50991389 432.61909781c0 25.62798327-20.97436072 46.59827629-46.6008197 46.59827629l-138.89767136 0 41.89531991 41.89786333 153.94438505 0c12.84705029 0 23.95089939-7.81834084 28.79270157-18.9336334l0-347.5752721c-4.84180217-11.11020699-15.94565126-18.93108997-28.79270157-18.93108998l-49.77596359 0c-5.46355709 62.38499275-57.82927323 111.31287692-121.6245928 111.31287691-63.80015194 0-116.16739362-48.92788546-121.63095073-111.31287691l-17.64689312 0C87.90473586 135.67549641999994 73.76967421 149.80648911000003 73.76967421 167.07193867L73.76967421 167.07193867z"  horiz-adv-x="1024" />

    
    <glyph glyph-name="orderAddress" unicode="&#59067;" d="M812.013313 149.38577418c26.60683003-26.08605577 41.25163327-56.21205727 41.25163327-88.21600229 0-103.60251432-150.97719033-179.85648983-334.90518797-181.57662298L512-120.43841318c-186.80014654 0-341.26494627 76.80631184-341.26494627 181.60818507 0 31.79879153 14.45543079 61.73542057 40.74664006 87.71100907a23.67155697 23.67155697 0 0 0 33.26642806-33.660954c-17.83257292-17.64320046-26.66995418-35.93342347-26.66995418-54.05005507 0-69.65750163 129.92528567-134.26507112 293.92183233-134.26507112s293.92183233 64.60756948 293.92183233 134.26507112c0 18.2428799-8.96362956 36.67513226-27.06448012 54.41301895a23.67155697 23.67155697 0 0 0 33.15596079 33.80298334zM512 889.5480174c102.639871 0 198.95154578-39.87868297 270.2187133-109.61508979 71.31451062-69.81531202 112.17161795-164.34372949 112.17161794-265.15300009 0-53.90802573-12.30920962-106.11169935-35.69670791-154.93823088-23.57687074-49.28418161-58.04265768-94.05498634-100.6830223-131.96103956l-246.02638206-218.66206223-33.96079373 30.25224981L265.84736963 228.00690538000003c-42.57724046 37.87449114-77.01146533 82.61373381-100.55677399 131.85057231-23.37171725 48.81075047-35.66514582 100.99864305-35.66514584 154.92244983 0 100.8092706 40.87288836 195.33768809 112.20318002 265.15300009C313.00111111 849.66933443 409.31278588 889.5480174 512 889.5480174z m0-47.34311392c-90.18863205 0-174.63296627-34.97078016-237.0627525-96.10652129-62.35088105-61.02527385-97.96868376-143.41807314-97.96868377-231.31845467 0-46.71187242 10.65220063-91.94032726 31.02552067-134.47022461 20.76784597-43.39785445 51.3199355-83.13450807 89.32067494-116.92171038L512 72.59524338000006l214.55899235 190.68228188c38.04808257 33.81876438 68.64751521 73.55541802 89.43114221 117.00061557 20.37332003 42.56145942 31.05708274 87.80569531 31.05708274 134.50178669 0 87.90038154-35.61780272 170.29318082-97.95290272 231.31845467C686.61718522 807.23412331 602.17285101 842.20490348 512 842.20490348z m0-196.56860905c44.12378219 0 85.58056896-17.16976933 116.3062499-47.21686564 30.69411886-30.22068773 48.33731932-71.0146709 48.33731932-114.41252533a159.86191472 159.86191472 0 0 0-48.40044348-114.49143054A165.795585 165.795585 0 0 0 512 322.36173145a165.76402291 165.76402291 0 0 0-116.22734471 47.15374147 159.75144745 159.75144745 0 0 0-48.43200555 114.49143054c0 43.42941651 17.67476253 84.25496176 48.43200555 114.3967443A165.49574527 165.49574527 0 0 0 512 645.63629443z m0-47.34311393a118.18419341 118.18419341 0 0 1-83.07138392-33.69251609c-21.80939449-21.38330646-34.24485241-50.0732335-34.2448524-80.59376095 0-30.61521368 12.40389585-59.3367028 34.19750929-80.64110407A118.42090898 118.42090898 0 0 1 512 369.68906433999996a118.45247106 118.45247106 0 0 1 83.11872703 33.64517298 112.51880078 112.51880078 0 0 1 34.18172826 80.64110406c0 30.52052745-12.41967688 59.24201656-34.16594722 80.64110406A118.46825209 118.46825209 0 0 1 512 598.2931805000001z"  horiz-adv-x="1024" />

    
    <glyph glyph-name="address" unicode="&#58948;" d="M512-76.27110102999995C257.79928848-76.27110102999995 51.72889897 129.79928847999997 51.72889897 384S257.79928848 844.27110103 512 844.27110103s460.27110103-206.07038952 460.27110103-460.27110103-206.07038952-460.27110103-460.27110103-460.27110103z m0.23219955 732.22630587h-0.4643991c-115.23083094-0.11558378-208.98165583-93.2895218-208.98165583-207.77215419 0-58.08291056 46.51524515-140.68299723 92.05422021-207.7700902a1462.74155908 1462.74155908 0 0 1 84.63828269-112.24319678c7.89994457-9.85970874 19.85770521-15.65334542 32.54508843-15.76686521h0.06914387c12.60482339 0.1052638 24.48724817 5.85658857 32.33559285 15.65128143a1461.1956261 1461.1956261 0 0 1 84.7311625 112.35878056c45.53897506 67.08709297 92.05422021 149.68717964 92.05422021 207.77112219 0 114.48160041-93.75082489 207.65553842-208.98165583 207.77215419zM419.01698161 448.18305065c0 50.92806853 41.70303855 92.34317964 92.98405038 92.34317964 51.27997985 0 92.98405039-41.41511111 92.9840504-92.34317964 0-50.92600453-41.70303855-92.34214765-92.9840504-92.34214765-51.27997985 0-92.98405039 41.41614311-92.98405038 92.34317964z"  horiz-adv-x="1024" />

    
    <glyph glyph-name="goods" unicode="&#58883;" d="M877.92864529 844.18594402L146.07135471 844.18594402c-51.99731149 0-94.25729873-42.25998725-94.25729873-94.25729873l0-731.98712156c0-51.99731149 42.25998725-94.25729873 94.25729873-94.25729874l731.92220608 0c51.99731149 0 94.25729873 42.25998725 94.25729871 94.25729874L972.25085951 749.99356079C972.18594402 801.99087228 929.92595678 844.18594402 877.92864529 844.18594402zM794.57714971 582.64141468l-1.94746483-1.03864792L792.37002289 579.39563993C772.31113493 440.9308891 651.76306071 336.48185766999995 512 336.48185766999995c-139.76306071 0-260.31113493 104.44903145-280.37002289 242.91378226L231.30539965 581.60276676l-1.94746485 1.03864792C215.46601885 590.88568255 207.1568355 604.84251396 207.1568355 620.1625708c0 24.27839513 19.73431048 44.01270559 44.07762111 44.0127056 24.27839513 0 44.01270559-19.73431048 44.01270561-44.0127056 0-12.78835251-5.77747906-24.73280359-16.35870474-33.49639542L276.81116163 585.04328801l0.45440846-2.59661981C295.76648617 466.31284764 394.50295406 382.05253514000003 512 382.05253514000003c117.49704594 0 216.23351383 84.325228 234.73442991 200.39413306l0.45440846 2.5317043-2.01238035 1.62288738C734.53031685 595.4297672 728.81775327 607.30930279 728.81775327 620.0976553c0 24.27839513 19.73431048 44.01270559 44.01270562 44.0127056 0 0 0 0 0 0l0 0c0 0 0 0 0 0 24.34331062 0 44.07762111-19.73431048 44.07762111-44.0127056C816.8431645 604.84251396 808.53398115 590.88568255 794.57714971 582.64141468z"  horiz-adv-x="1024" />

    
    <glyph glyph-name="picture" unicode="&#58977;" d="M868.4854888 797.9588201l-712.97424614 0c-69.7171551 0-126.46410667-56.74586204-126.46410667-126.46410666L29.04713599 96.50637714000004c0-69.71824461 56.74695156-126.46410667 126.46410667-126.46410665l712.97424614 0c69.71933413 0 126.46519618 56.74586204 126.46519617 126.46410665L994.95068497 671.4947134399999C994.9517745 741.2129569900001 938.20482294 797.9588201 868.4854888 797.9588201zM270.52438486 625.47615936c38.11938288 0 68.99349968-30.87411681 68.99349969-68.99349968 0-38.11829336-30.87411681-68.99349968-68.99349969-68.99349967-38.08450773 0-68.99349968 30.87520739-68.99349968 68.99349967C201.53088518 594.6020425500001 232.43878762 625.47615936 270.52438486 625.47615936zM856.96477514 142.52493016000005c0-19.07658425-15.41907607-33.9442005-34.49566032-33.94420051l-618.86971082-0.55145981c-0.13732047 0-0.24194482 0-0.37926528 0-10.86680852 0-21.14619257 4.62310734-27.6667137 13.35055726-6.58918082 8.82989524-8.55525539 20.0083978-5.27810201 30.56242277 2.48374874 8.07354478 62.8184582 197.87269538 194.11165237 197.87269539 41.0510566-0.96668976 72.68370289-10.58998856 103.24721518-19.76645404 38.49864709-11.55667831 76.03169608-21.4927628 118.22054637-14.83165161 22.04422155 3.55288275 31.15093677 25.66467558 46.70842283 75.40721635 20.52498355 65.54415176 51.53859984 164.65214923 188.28209054 164.65214925 18.90438864 0 34.25480502-15.17822077 34.49674984-34.08151991l1.62059383-136.77945537L856.96259504 142.52493016000005z"  horiz-adv-x="1024" />

    
    <glyph glyph-name="camera" unicode="&#59159;" d="M889.44106613 709.50798421L512.53259393 709.50798421c0 28.55668879-9.99001492 52.82677056-29.97866291 72.81455733-19.98778558 19.98692435-44.25700731 29.97866291-72.80766281 29.97866291l-68.53398358 0c-28.55151791 0-52.81987723-9.99087614-72.80852403-29.97866291-19.98778558-19.98778558-29.97866291-44.25786853-29.9786629-72.81455733L135.63187746 709.50798421c-28.55668879 0-52.82677056-9.99173855-72.81541854-29.97952412-19.98692435-19.98692435-29.97866291-44.25700731-29.97866291-72.81541855l0-548.22188697c0-28.55755002 9.99087614-52.82677056 29.97866291-72.81369491 19.98864797-19.98692435 44.25700731-29.97866291 72.81541854-29.97866291l753.80832626 0c28.55237913 0 52.82073846 9.99173855 72.80852403 29.97866291s29.98469501 44.25700731 29.984695 72.81369491L992.23342394 606.71390276c0 28.55755002-9.99690944 52.82849418-29.98469501 72.81541854S917.99344526 709.50798421 889.44106613 709.50798421L889.44106613 709.50798421zM512.53259393 127.01824363000003c-56.39549543 0-104.75382036 20.16962655-145.07411356 60.51232572-40.31425989 40.33752947-60.4873337 88.69757803-60.50715483 145.07583719-0.02585442 56.37050343 20.14549575 104.73313682 60.50715483 145.07325113 40.36769237 40.33666706 88.72429366 60.50715482 145.07411356 60.50715484 56.35757563 0 104.71245449-20.17048776 145.07497477-60.50715484 40.36252149-40.34097673 60.53300925-88.70274891 60.51318812-145.07325113-0.02068354-56.37825917-20.19289493-104.73830771-60.51318812-145.07583719C617.29330881 147.1895938 568.9367075 127.01824363000003 512.53259393 127.01824363000003L512.53259393 127.01824363000003zM838.04661144 469.65972344c-14.27748199 0-26.41855616 5.0036256-36.42580738 15.00484351-10.00638879 10.0072512-15.00570591 22.14660175-15.00570591 36.42580737s4.99931594 26.41855616 15.00570591 36.42149769c10.00638879 10.00638879 22.14660175 15.01001438 36.42580738 15.01001441 14.27403473 0 26.41252406-5.00448683 36.42063648-15.01001441 10.00638879-10.00121791 15.01087681-22.14143086 15.0108768-36.42149769 0-14.2783444-5.00448683-26.41769494-15.0108768-36.42580737C864.45999671 474.66334905 852.31978376 469.65972344 838.04661144 469.65972344L838.04661144 469.65972344z"  horiz-adv-x="1024" />

    
    <glyph glyph-name="wenzhen-white" unicode="&#59001;" d="M147.91111111 432.64a27.30666667 27.30666667 0 0 0 27.05180444-23.59296L175.21777778 405.33333333v-364.08888889c0-23.55655111 17.91317333-42.96248889 40.85077333-45.29265778L220.72888889-4.26666666999995h618.95111111a45.51111111 45.51111111 0 0 1 45.29265778 40.85077333L885.19111111 41.24444444000005v258.21184a27.30666667 27.30666667 0 0 0 54.35847111 3.71370667l0.25486223-3.71370667V41.24444444000005a100.12444445 100.12444445 0 0 0-94.00775112-99.9424L839.68-58.879999999999995H220.72888889a100.12444445 100.12444445 0 0 0-99.9424 94.00775111L120.60444445 41.24444444000005V405.33333333a27.30666667 27.30666667 0 0 0 27.30666666 27.30666667zM842.44707555 833.13777778H217.74336a100.12444445 100.12444445 0 0 1-96.01024-71.72551112l-65.31754667-221.11118222A110.68302222 110.68302222 0 0 1 47.78666667 496.35555555a118.32888889 118.32888889 0 0 1 118.32888888-118.32888889l7.50023112 0.21845334a117.85557333 117.85557333 0 0 1 61.16693333 21.73610666l4.11420445 3.20398223 4.18702222-3.20398223c19.6608-14.05383111 43.54503111-21.95456 68.66716444-21.95456l7.50023111 0.21845334a117.85557333 117.85557333 0 0 1 61.16693333 21.73610666l4.11420445 3.20398223 4.18702222-3.20398223c19.6608-14.05383111 43.54503111-21.95456 68.66716445-21.95456l7.50023111 0.21845334a117.85557333 117.85557333 0 0 1 61.16693333 21.73610666l4.11420444 3.20398223 4.18702223-3.20398223c19.6608-14.05383111 43.54503111-21.95456 68.66716444-21.95456l7.50023111 0.21845334a117.85557333 117.85557333 0 0 1 61.16693334 21.73610666l4.11420444 3.20398223 4.18702222-3.20398223c19.6608-14.05383111 43.54503111-21.95456 68.66716445-21.95456l7.50023111 0.21845334a117.85557333 117.85557333 0 0 1 61.16693333 21.73610666l4.11420445 3.20398223 4.18702222-3.20398223A118.32888889 118.32888889 0 0 1 1012.62222222 496.35555555l-0.29127111 8.44686223a117.85557333 117.85557333 0 0 1-6.99050666 32.51313777l-2.29376 5.57056-64.55296 218.48974223a100.12444445 100.12444445 0 0 1-96.0466489 71.76192zM217.74336 778.52444444h624.70371555a45.51111111 45.51111111 0 0 0 43.69066667-32.62236444l64.95345778-219.87328 1.31072-3.49525334a63.71555555 63.71555555 0 0 0-109.11744-64.37091555l-21.88174222 29.16352-21.84533333-29.19992889a63.56992 63.56992 0 0 0-101.9448889 0.03640889l-21.84533333 29.16352-21.84533333-29.19992889a63.56992 63.56992 0 0 0-101.94488889 0.03640889l-21.84533333 29.16352-21.84533334-29.19992889a63.56992 63.56992 0 0 0-101.94488888 0.03640889l-21.84533334 29.16352-21.84533333-29.19992889a63.56992 63.56992 0 0 0-101.94488889 0.03640889l-21.84533334 29.16352-21.84533333-29.19992889a63.71555555 63.71555555 0 0 0-109.37230222 63.56992L174.12551111 745.9020800000001a45.51111111 45.51111111 0 0 0 43.61784889 32.62236444zM548.40888889 332.51555555000004a27.30666667 27.30666667 0 0 0 27.30666666-27.30666666v-54.61333334h54.61333334a27.30666667 27.30666667 0 1 0 0-54.61333333h-54.61333334v-54.61333333a27.30666667 27.30666667 0 1 0-54.61333333 0v54.61333333h-54.61333333a27.30666667 27.30666667 0 1 0 0 54.61333333h54.61333333v54.61333334A27.30666667 27.30666667 0 0 0 548.40888889 332.51555555000004zM653.08444445 628.33777778m-36.4088889 0a36.40888889 36.40888889 0 1 1 72.81777778 0 36.40888889 36.40888889 0 1 1-72.81777778 0ZM584.81777778 696.60444444m-36.40888889 0a36.40888889 36.40888889 0 1 1 72.81777778 0 36.40888889 36.40888889 0 1 1-72.81777778 0ZM475.59111111 696.60444444m-36.40888889 0a36.40888889 36.40888889 0 1 1 72.81777778 0 36.40888889 36.40888889 0 1 1-72.81777778 0ZM398.22222222 628.33777778m-36.40888889 0a36.40888889 36.40888889 0 1 1 72.81777778 0 36.40888889 36.40888889 0 1 1-72.81777778 0ZM525.65333333 516.2712177799999c52.79288889 0 95.57333333-13.65333333 95.57333334 35.93557333S578.44622222 641.99111111 525.65333333 641.99111111 430.08 601.79569778 430.08 552.20679111s42.78044445-35.93557333 95.57333333-35.93557333z"  horiz-adv-x="1024" />

    
    <glyph glyph-name="xiaoxi-selectbeifen" unicode="&#59002;" d="M853.33333333 778.13333333A93.86666667 93.86666667 0 0 0 947.2 684.26666666v-528.79360001a93.86666667 93.86666667 0 0 0-93.86666667-93.86666666h-207.32586666a8.53333333 8.53333333 0 0 1-5.80266667-2.28693334l-87.68853333-81.54453333a59.73333333 59.73333333 0 0 0-81.06666667-0.23893333l-91.5456 84.0704H170.66666667a93.86666667 93.86666667 0 0 0-93.696 88.13226667l-0.17066667 5.73439999V684.26666666A93.86666667 93.86666667 0 0 0 170.66666667 778.13333333z m0-51.20000001H170.66666667c-23.552 0-42.66666667-19.11466667-42.66666667-42.66666667v-528.7936c0-23.552 19.11466667-42.66666667 42.66666667-42.66666665h229.1712l106.25706666-97.55306668a8.53333333 8.53333333 0 0 1 11.5712 0l87.68853334 81.57866668a59.73333333 59.73333333 0 0 0 40.6528 15.9744H853.33333333c23.552 0 42.66666667 19.11466667 42.66666667 42.66666665V684.26666666c0 23.552-19.11466667 42.66666667-42.66666667 42.66666666zM588.8 342.93333332a25.6 25.6 0 1 0 0-51.2h-324.26666667a25.6 25.6 0 1 0 0 51.2h324.26666667z m170.66666667 170.66666667a25.6 25.6 0 1 0 0-51.19999999H264.53333333a25.6 25.6 0 0 0 0 51.19999999h494.93333334z"  horiz-adv-x="1024" />

    
    <glyph glyph-name="like" unicode="&#58882;" d="M41.484288 461.0473984c0.4390912-30.66647893 5.2297728-60.9943552 13.8641408-87.83243947 9.53658027-39.77161387 37.68429227-84.639744 85.99197013-137.0882048 46.0193792-49.9646464 109.65701973-106.38240427 194.54798507-172.4776448l0.08956587-0.06990506c44.4104704-34.34960213 111.71048107-81.16196693 140.44910933-101.15263147l2.45213867-1.7006592c4.2532864-2.94475093 8.64310613-5.9834368 10.01171626-6.96756907 1.99120213-1.5302656 4.145152-2.9589504 6.41488214-4.25547093l0.540672-0.30255787c7.90254933-4.33302187 16.85476693-6.62350507 25.88672-6.62350506 10.27167573 0 20.25499307 2.90761387 28.87953066 8.4082688 39.02887253 24.79445333 91.14200747 64.03631787 154.89870507 116.6442496C872.1629184 204.12880213000005 961.07124053 307.40152320000004 977.18545067 383.213568c8.32744107 28.72552107 12.3666432 58.91577173 12.00837973 89.7974272C987.12398507 635.9444138700001 862.02886827 768.499712 710.33378133 768.499712l-5.15549866-0.03713707c-73.5019008-1.00051627-141.72378453-30.46659413-192.64853334-82.12862293-51.80511573 49.6500736-120.5239808 77.4406144-194.11544746 77.4406144l-0.1441792 0c-71.20923307-0.2883584-138.72442027-29.24107093-190.09590614-81.5071232C72.0011264 625.1757568 40.40403627 544.5632 41.484288 461.0473984zM318.5082368 692.77723307c33.193984-0.00873813 64.66655573-7.26029653 93.54390187-21.5547904 28.606464-14.16014507 53.18355627-34.47958187 73.0497024-60.3947008l28.95817386-37.77604267 27.94891947 38.52752213c38.93275307 53.6674304 98.7136 84.96851627 164.02786987 85.8914816l4.40838826 0.03167574c112.9938944-0.0622592 206.18062507-101.1482624 207.75785814-225.35427414 0.2818048-24.27671893-2.92509013-47.92429227-9.53330347-70.28626773l-0.45438293-1.5368192-0.3145728-1.57177173c-6.5601536-32.85756587-47.4284032-112.4368384-247.42352214-276.2375168l-0.10048853-0.08301227c-56.30416213-46.46065493-102.73969493-81.82715733-138.24273067-105.299968-0.868352 0.60183893-1.81425493 1.25610667-2.84317013 1.96826453l-2.31888213 1.6089088c-28.2886144 19.677184-94.52694187 65.7522688-137.51855787 99.00086614-80.61146453 62.76491947-143.15574613 118.11771733-185.88740267 164.51392853-49.58235307 53.83236267-65.09472427 87.58121813-69.3764096 106.41189547l-0.3702784 1.63075413-0.52319573 1.589248c-6.73163947 20.46798507-10.4726528 44.0532992-10.81780907 68.15744-0.83667627 64.65017173 23.330816 126.779392 66.32024747 170.47115093C216.78871893 671.1416149300001 266.40274773 692.55222613 318.5082368 692.77723307z"  horiz-adv-x="1024" />

    
    <glyph glyph-name="liked" unicode="&#58910;" d="M1020.99328 515.328c0 164.352-133.504 298.432-297.28 298.432a293.12 293.12 0 0 1-213.184-90.688 294.912 294.912 0 0 1-213.248 90.688C133.50528 813.76 0.00128 679.6800000000001 0.00128 515.328a295.68 295.68 0 0 1 80.768-203.84c1.088-1.088 1.664-2.176 2.752-3.328l4.416-4.352 376.384-361.6c12.16-12.096 28.608-18.688 46.208-18.688 17.536 0 34.56 7.168 47.232 19.2 12.096 11.008 308.288 293.504 376.448 361.088l3.264 3.264a299.52 299.52 0 0 1 83.52 208.256z m-723.2 148.416a152.704 152.704 0 0 1-152.192-152.768c0-12.672-10.432-23.04-23.04-23.04a23.232 23.232 0 0 0-23.04 23.04c0 109.312 88.96 198.4 197.76 198.4 12.672 0 23.04-10.496 23.04-23.104a22.656 22.656 0 0 0-22.464-22.528z"  horiz-adv-x="1024" />

    
    <glyph glyph-name="renzhengbeifen" unicode="&#58990;" d="M512 76.8m-102.4 0a102.4 102.4 0 1 1 204.8 0 102.4 102.4 0 1 1-204.8 0ZM819.2 76.8m-102.4 0a102.4 102.4 0 1 1 204.8 0 102.4 102.4 0 1 1-204.8 0ZM852.48 397.9264l-79.104 79.0016V585.5744c0 34.6112-24.7296 59.2896-59.3408 59.2896h-83.968c-14.848 0-29.696 4.9152-39.5776 19.7632l-59.3408 59.2384c-24.6784 24.7296-59.2896 24.7296-83.968 0l-59.392-59.2384c-14.7968-9.8816-29.5936-19.7632-44.4416-19.7632H259.328c-34.6112 0-59.2896-24.6784-59.2896-59.2896v-83.968c0-14.7968-4.9664-29.5936-19.8144-39.4752L120.9344 397.9264c-24.7296-24.7296-24.7296-59.2896 0-83.968l59.2896-59.2896c9.9328-9.8816 19.8144-24.6784 19.8144-39.4752v-83.968c0-34.6112 24.6784-59.2896 59.2896-59.2896h84.0192c14.848 0 29.696-4.9152 39.5264-19.7632l59.3408-59.2384c24.6784-24.7296 59.2896-24.7296 83.968 0l59.392 59.2384c9.8304 9.8816 24.6784 19.7632 39.5264 19.7632h83.968c34.6112 0 59.392 24.6784 59.392 59.2896v83.968c0 14.7968 4.9152 29.5936 19.712 39.4752l59.3408 59.2896c29.6448 24.6784 29.6448 64.2048 4.9152 83.968zM486.4 358.4m-230.4 0a230.4 230.4 0 1 1 460.8 0 230.4 230.4 0 1 1-460.8 0ZM336.3328 401.9712l97.9968-81.5104s5.376-2.8672 12.1344 0l241.3056 216.9856s35.4816 4.096 28.0064-31.3856c-23.296-25.4976-260.5056-271.4624-260.5056-271.4624s-15.5648-9.472-30.4128 0C410.0096 250.624 307.2 375.6544 307.2 375.6544s-8.7552 15.7696 3.328 26.3168c12.1344 10.5984 25.7536 0.0512 25.8048 0z"  horiz-adv-x="1024" />

    
    <glyph glyph-name="wode" unicode="&#58991;" d="M861.52533333-59.118933330000004H162.47466667a32.768 32.768 0 0 0-32.768 32.83626666C131.9936 183.05706667000004 303.0016 351.06133333 512 349.18399999999997c40.17493333 0 80.11093333-6.21226667 118.40853333-18.36373333a32.83626667 32.83626667 0 0 0-19.89973333-62.60053334A325.18826667 325.18826667 0 0 1 512 283.57973332999995c-160.08533333 1.39946667-295.66293333-117.8624-315.01653333-277.02613333H827.05066667a302.93333333 302.93333333 0 0 1-65.536 156.8768 316.55253333 316.55253333 0 0 1-68.36906667 63.8976 32.90453333 32.90453333 0 0 0 37.34186667 54.0672c31.3344-21.4016 59.25546667-47.44533333 82.80746666-77.24373333A365.84106667 365.84106667 0 0 0 894.29333333-26.282666670000026a32.768 32.768 0 0 0-32.768-32.83626666zM516.33493333 297.13066667c-149.43573333-1.2288-271.7696 117.89653333-273.68106666 266.51306666 0 150.28906667 122.53866667 272.14506667 273.68106666 272.14506667 151.17653333 0 273.68106667-121.856 273.68106667-272.14506667-1.91146667-148.61653333-124.24533333-267.74186667-273.68106667-266.51306666z m0 468.13866666c-113.32266667 1.19466667-206.30186667-88.95146667-208.00853333-201.6256 0-114.24426667 93.14986667-206.848 208.00853333-206.848 114.8928 0 208.00853333 92.60373333 208.00853334 206.848-1.70666667 112.67413333-94.65173333 202.82026667-208.00853334 201.6256z"  horiz-adv-x="1024" />

    
    <glyph glyph-name="wenzhen" unicode="&#58992;" d="M192 408a24 24 0 0 0 23.776-20.736L216 384v-320c0-20.704 15.744-37.76 35.904-39.808L256 24h544a40 40 0 0 1 39.808 35.904L840 64v226.944a24 24 0 0 0 47.776 3.264l0.224-3.264V64a88 88 0 0 0-82.624-87.84L800-24H256a88 88 0 0 0-87.84 82.624L168 64V384a24 24 0 0 0 24 24zM802.432 760H253.376a88 88 0 0 1-84.384-63.04l-57.408-194.336A97.28 97.28 0 0 1 104 464a104 104 0 0 1 104-104l6.592 0.192a103.584 103.584 0 0 1 53.76 19.104l3.616 2.816 3.68-2.816c17.28-12.352 38.272-19.296 60.352-19.296l6.592 0.192a103.584 103.584 0 0 1 53.76 19.104l3.616 2.816 3.68-2.816c17.28-12.352 38.272-19.296 60.352-19.296l6.592 0.192a103.584 103.584 0 0 1 53.76 19.104l3.616 2.816 3.68-2.816c17.28-12.352 38.272-19.296 60.352-19.296l6.592 0.192a103.584 103.584 0 0 1 53.76 19.104l3.616 2.816 3.68-2.816c17.28-12.352 38.272-19.296 60.352-19.296l6.592 0.192a103.584 103.584 0 0 1 53.76 19.104l3.616 2.816 3.68-2.816A104 104 0 0 1 952 464l-0.256 7.424a103.584 103.584 0 0 1-6.144 28.576l-2.016 4.896-56.736 192.032a88 88 0 0 1-84.416 63.072zM253.376 712h549.056a40 40 0 0 0 38.4-28.672l57.088-193.248 1.152-3.072a56 56 0 0 0-95.904-56.576l-19.232 25.632-19.2-25.664a55.872 55.872 0 0 0-89.6 0.032l-19.2 25.632-19.2-25.664a55.872 55.872 0 0 0-89.6 0.032l-19.2 25.632-19.2-25.664a55.872 55.872 0 0 0-89.6 0.032l-19.2 25.632-19.2-25.664a55.872 55.872 0 0 0-89.6 0.032l-19.2 25.632-19.2-25.664a56 56 0 0 0-96.128 55.872L215.04 683.328a40 40 0 0 0 38.336 28.672zM544 320a24 24 0 0 0 24-24v-48h48a24 24 0 1 0 0-48h-48v-48a24 24 0 1 0-48 0v48h-48a24 24 0 1 0 0 48h48v48A24 24 0 0 0 544 320z"  horiz-adv-x="1024" />

    
    <glyph glyph-name="zhuzi-select" unicode="&#58993;" d="M785.06666667 362.66666667000004m-68.26666667 0a68.26666667 68.26666667 0 1 1 136.53333333 0 68.26666667 68.26666667 0 1 1-136.53333333 0ZM238.93333333 362.66666667000004m-68.26666666 0a68.26666667 68.26666667 0 1 1 136.53333333 0 68.26666667 68.26666667 0 1 1-136.53333333 0ZM512 93.28639999999996c113.11786667 0 204.8-29.2864 204.8 76.97066667S625.11786667 362.66666667000004 512 362.66666667000004s-204.8-86.15253333-204.8-192.4096c0-106.25706667 91.68213333-76.97066667 204.8-76.97066667zM614.4 567.46666667m-102.4 0a102.4 102.4 0 1 1 204.8 0 102.4 102.4 0 1 1-204.8 0ZM375.46666667 567.46666667m-102.4 0a102.4 102.4 0 1 1 204.8 0 102.4 102.4 0 1 1-204.8 0ZM497.22026667 764.7573333400001C440.32 799.91466667 374.44266667 806.46826667 301.39733333 784.52053334c-107.48586667-32.29013333-165.71733333-136.63573333-150.08426666-245.1456l1.26293333-7.71413334-5.87093333-2.18453333c-9.216-3.75466667-18.19306667-8.15786667-26.96533334-13.48266667l-8.66986666-5.59786666c-42.42773333-29.2864-68.13013333-74.6496-68.13013334-137.28426667 0-78.0288 42.496-149.94773333 139.264-184.32l4.53973334-1.536-0.7168-8.53333333c-3.75466667-47.06986667-1.46773333-92.50133333 12.3904-155.57973334a25.6 25.6 0 1 1 50.00533333 10.99093334c-11.70773333 53.38453333-14.336 91.92106667-12.04906667 130.83306666l1.77493334 23.1424c0.4096 5.08586667 0.54613333 8.66986667 0.44373333 12.11733334-0.512 14.91626667-6.8608 27.8528-22.6304 31.6416l-1.2288 0.23893333-7.95306667 2.38933333c-77.312 24.7808-110.25066667 75.264-112.50346666 132.23253334l-0.13653334 6.38293333c0 45.1584 16.96426667 75.09333333 46.01173334 95.1296 14.98453333 10.3424 59.2896 25.83893333 63.0784 30.9248a25.6 25.6 0 0 1 4.096 22.1184c-26.07786667 93.5936 18.8416 187.15306667 108.78293333 214.18666667 65.09226667 19.5584 119.808 11.84426667 166.74133333-22.76693334a25.6 25.6 0 0 1 28.39893334-1.36533333c59.05066667 35.5328 112.29866667 43.28106667 161.62133333 24.71253333 94.75413333-35.70346667 145.06666667-115.02933333 109.02186667-212.75306666a25.6 25.6 0 0 1 1.46773333-20.92373334c4.8128-9.07946667 63.1808-25.83893333 80.9984-35.66933333 36.79573333-20.34346667 57.58293333-48.91306667 57.58293333-89.7024 0-64.512-31.9488-111.104-99.25973333-142.57493333l-5.97333333-2.6624-1.70666667-0.34133334c-20.13866667-4.43733333-32.768-11.81013333-34.47466667-29.5936l-0.2048-4.3008 0.37546667-3.92533333c0.85333333-6.82666667 2.79893333-20.30933333 3.54986667-26.58986667a426.66666667 426.66666667 0 0 0 3.00373333-75.29813333c-3.51573333-58.02666667-20.82133333-85.67466667-56.25173333-83.2512l-19.38773334 1.16053333a2520.50773333 2520.50773333 0 0 1-124.27946666 2.59413334c-36.864 0-75.6736-0.44373333-115.43893334-1.19466667l-97.34826666-2.49173333a25.6 25.6 0 0 1 0-51.2l68.53973333 1.8432 59.15306667 1.16053333c19.456 0.3072 38.6048 0.512 57.344 0.6144l27.71626666 0.06826667c57.00266667 0 104.72106667-1.16053333 140.15146667-3.61813334 72.36266667-5.0176 105.91573333 48.57173333 110.8992 131.24266667a475.47733333 475.47733333 0 0 1-3.2768 84.44586667l-1.26293333 10.37653333 0.88746666 0.27306667c87.82506667 37.888 135.09973333 100.2496 138.24 184.18346666l0.2048 9.07946667c0 61.57653333-32.22186667 105.8816-84.03626666 134.51946667a250.23146667 250.23146667 0 0 1-42.7008 18.46613333l-8.12373334 2.52586667 1.36533334 5.80266666c24.61013333 110.08-37.34186667 200.43093333-141.07306667 242.61973334l-7.68 3.00373333c-59.32373333 22.35733333-122.29973333 15.94026667-187.392-18.19306667l-4.23253333-2.32106666-2.048 1.3312z"  horiz-adv-x="1024" />

    
    <glyph glyph-name="wenzhen-select" unicode="&#58994;" d="M192 408a24 24 0 0 0 23.776-20.736L216 384v-320c0-20.704 15.744-37.76 35.904-39.808L256 24h544a40 40 0 0 1 39.808 35.904L840 64v226.944a24 24 0 0 0 47.776 3.264l0.224-3.264V64a88 88 0 0 0-82.624-87.84L800-24H256a88 88 0 0 0-87.84 82.624L168 64V384a24 24 0 0 0 24 24zM802.432 760H253.376a88 88 0 0 1-84.384-63.04l-57.408-194.336A97.28 97.28 0 0 1 104 464a104 104 0 0 1 104-104l6.592 0.192a103.584 103.584 0 0 1 53.76 19.104l3.616 2.816 3.68-2.816c17.28-12.352 38.272-19.296 60.352-19.296l6.592 0.192a103.584 103.584 0 0 1 53.76 19.104l3.616 2.816 3.68-2.816c17.28-12.352 38.272-19.296 60.352-19.296l6.592 0.192a103.584 103.584 0 0 1 53.76 19.104l3.616 2.816 3.68-2.816c17.28-12.352 38.272-19.296 60.352-19.296l6.592 0.192a103.584 103.584 0 0 1 53.76 19.104l3.616 2.816 3.68-2.816c17.28-12.352 38.272-19.296 60.352-19.296l6.592 0.192a103.584 103.584 0 0 1 53.76 19.104l3.616 2.816 3.68-2.816A104 104 0 0 1 952 464l-0.256 7.424a103.584 103.584 0 0 1-6.144 28.576l-2.016 4.896-56.736 192.032a88 88 0 0 1-84.416 63.072zM253.376 712h549.056a40 40 0 0 0 38.4-28.672l57.088-193.248 1.152-3.072a56 56 0 0 0-95.904-56.576l-19.232 25.632-19.2-25.664a55.872 55.872 0 0 0-89.6 0.032l-19.2 25.632-19.2-25.664a55.872 55.872 0 0 0-89.6 0.032l-19.2 25.632-19.2-25.664a55.872 55.872 0 0 0-89.6 0.032l-19.2 25.632-19.2-25.664a55.872 55.872 0 0 0-89.6 0.032l-19.2 25.632-19.2-25.664a56 56 0 0 0-96.128 55.872L215.04 683.328a40 40 0 0 0 38.336 28.672zM544 320a24 24 0 0 0 24-24v-48h48a24 24 0 1 0 0-48h-48v-48a24 24 0 1 0-48 0v48h-48a24 24 0 1 0 0 48h48v48A24 24 0 0 0 544 320zM636 580m-32 0a32 32 0 1 1 64 0 32 32 0 1 1-64 0ZM576 640m-32 0a32 32 0 1 1 64 0 32 32 0 1 1-64 0ZM480 640m-32 0a32 32 0 1 1 64 0 32 32 0 1 1-64 0ZM412 580m-32 0a32 32 0 1 1 64 0 32 32 0 1 1-64 0ZM524 481.504c46.4 0 84-12 84 31.584S570.4 592 524 592 440 556.672 440 513.088s37.6-31.584 84-31.584z"  horiz-adv-x="1024" />

    
    <glyph glyph-name="zhuzi" unicode="&#58995;" d="M785.06666667 362.66666667000004m-68.26666667 0a68.26666667 68.26666667 0 1 1 136.53333333 0 68.26666667 68.26666667 0 1 1-136.53333333 0ZM238.93333333 362.66666667000004m-68.26666666 0a68.26666667 68.26666667 0 1 1 136.53333333 0 68.26666667 68.26666667 0 1 1-136.53333333 0ZM512 93.28639999999996c113.08373333 0 204.8-29.2864 204.8 76.97066667s-91.71626667 192.4096-204.8 192.4096c-113.11786667 0-204.8-86.15253333-204.8-192.4096 0-106.25706667 91.68213333-76.97066667 204.8-76.97066667zM614.4 567.46666667m-102.4 0a102.4 102.4 0 1 1 204.8 0 102.4 102.4 0 1 1-204.8 0ZM375.46666667 567.46666667m-102.4 0a102.4 102.4 0 1 1 204.8 0 102.4 102.4 0 1 1-204.8 0ZM497.2544 764.7573333400001C440.28586667 799.91466667 374.3744 806.4 301.32906667 784.45226667c-107.45173333-32.29013333-165.6832-136.6016-150.08426667-245.11146667l1.26293333-7.71413333-5.8368-2.21866667c-9.216-3.72053333-18.2272-8.12373333-26.96533333-13.44853333l-8.66986667-5.632C68.64213333 481.10933334 42.93973333 435.712 42.93973333 373.07733334c0-78.0288 42.496-149.94773333 139.264-184.32l4.5056-1.50186667-0.68266666-8.53333333c-3.75466667-47.06986667-1.46773333-92.50133333 12.35626666-155.57973334a25.6 25.6 0 0 1 50.03946667 10.99093334c-11.74186667 53.3504-14.336 91.92106667-12.04906667 130.79893333l1.77493334 23.1424c0.37546667 5.12 0.54613333 8.704 0.4096 12.15146667-0.47786667 14.91626667-6.82666667 27.8528-22.59626667 31.6416l-1.024 0.2048-8.192 2.38933333c-77.312 24.81493333-110.25066667 75.29813333-112.46933333 132.26666667l-0.13653334 6.3488c0 45.1584 16.96426667 75.09333333 46.01173334 95.16373333 14.9504 10.3424 59.25546667 25.8048 63.0784 30.9248a25.6 25.6 0 0 1 4.096 22.1184c-26.07786667 93.5936 18.80746667 187.15306667 108.78293333 214.18666667 65.05813333 19.5584 119.808 11.81013333 166.74133333-22.80106667a25.6 25.6 0 0 1 28.39893334-1.3312c59.05066667 35.5328 112.29866667 43.24693333 161.5872 24.6784C767.5904 700.3136 817.9712 621.056 781.9264 523.264a25.6 25.6 0 0 1 1.4336-20.92373333c4.84693333-9.04533333 63.21493333-25.8048 80.9984-35.6352 36.864-20.34346667 57.58293333-48.91306667 57.58293333-89.7024 0-64.54613333-31.91466667-111.104-99.25973333-142.57493333l-5.97333333-2.6624-1.6384-0.34133334c-20.13866667-4.43733333-32.80213333-11.81013333-34.5088-29.62773333l-0.2048-4.3008 0.37546666-3.8912c0.8192-6.82666667 2.79893333-20.34346667 3.54986667-26.624a426.66666667 426.66666667 0 0 0 2.9696-75.264c-3.4816-58.02666667-20.82133333-85.7088-56.2176-83.28533333-36.864 2.56-85.64053333 3.75466667-143.70133333 3.75466666-36.864 0-75.6736-0.4096-115.43893334-1.19466666l-97.31413333-2.49173334a25.6 25.6 0 0 1-3.4816-50.96106666l3.4816-0.23893334c-0.03413333 0 41.94986667 1.2288 68.53973333 1.87733334a6493.52533333 6493.52533333 0 0 0 116.46293334 1.7408l27.7504 0.06826666c57.00266667 0 104.72106667-1.16053333 140.15146666-3.61813333 72.36266667-5.0176 105.91573333 48.60586667 110.8992 131.24266667a475.47733333 475.47733333 0 0 1-3.2768 84.44586666l-1.29706666 10.41066667 0.9216 0.23893333c87.82506667 37.888 135.09973333 100.28373333 138.24 184.2176l0.17066666 9.07946667c0 61.57653333-32.18773333 105.8816-84.00213333 134.48533333a250.23146667 250.23146667 0 0 1-42.73493333 18.50026667l-8.12373334 2.52586667 1.39946667 5.80266666c24.61013333 110.08-37.34186667 200.3968-141.07306667 242.61973334l-7.68 3.00373333c-59.35786667 22.35733333-122.29973333 15.90613333-187.392-18.2272l-4.23253333-2.2528-2.048 1.26293333z"  horiz-adv-x="1024" />

    
    <glyph glyph-name="faxian-select" unicode="&#58996;" d="M480 818.464a64 64 0 0 0 58.944 2.624l5.056-2.624 328.256-189.504a64 64 0 0 0 31.808-50.208l0.192-5.216v-379.072a64 64 0 0 0-27.552-52.608l-4.448-2.816L528-59.712a32 32 0 0 0-35.136 53.376l3.136 2.048 344.256 198.752V573.536L512 763.04 183.744 573.536v-379.072l222.56-128.48a32 32 0 0 0-28.672-57.12l-3.328 1.696-222.56 128.48a64 64 0 0 0-31.808 50.208l-0.192 5.216V573.536a64 64 0 0 0 27.552 52.608l4.448 2.816L480 818.464zM512 384m-128 0a128 128 0 1 1 256 0 128 128 0 1 1-256 0Z"  horiz-adv-x="1024" />

    
    <glyph glyph-name="faxian" unicode="&#58997;" d="M488.256 818.464a64 64 0 0 0 58.976 2.624l5.024-2.624L880.544 628.96a64 64 0 0 0 31.776-50.176l0.224-5.248v-379.04a64 64 0 0 0-27.584-52.608l-4.416-2.816-344.288-198.752a32 32 0 0 0-35.104 53.376l3.104 2.048 344.288 198.752V573.504L520.256 763.04 192 573.504v-379.04l222.56-128.48a32 32 0 0 0-28.672-57.12l-3.328 1.664L160 139.04a64 64 0 0 0-31.776 50.176L128 194.464V573.504a64 64 0 0 0 27.552 52.64L160 628.928 488.256 818.464zM520.256 384m-128 0a128 128 0 1 1 256 0 128 128 0 1 1-256 0Z"  horiz-adv-x="1024" />

    
    <glyph glyph-name="xiaoxichunse" unicode="&#58998;" d="M439.18222222 22.824364439999954c0 42.67121778 182.04444445 42.67121778 182.04444445 0C621.22666667-19.810444449999977 580.44871111-54.39888888999997 530.20444445-54.39888888999997s-91.02222222 34.58844445-91.02222223 77.22325333z m74.41976889 799.39356444a67.32003555 67.32003555 0 0 0 65.60881778-82.83022222c132.12785778-29.38197333 231.08721778-145.59914667 231.08721778-284.06215111v-189.90876444l69.28611555-119.78524445a35.93557333 35.93557333 0 0 0-0.14563555-36.29966222 37.17347555 37.17347555 0 0 0-32.03982222-18.09521778H179.80529778c-13.18001778 0-25.41340445 6.91768889-32.03982223 18.09521778a35.82634667 35.82634667 0 0 0-0.18204444 36.29966222l69.50456889 120.00369778L216.94236445 455.32555555c0 138.46300445 98.92295111 254.68017778 231.05080888 284.09856a67.32003555 67.32003555 0 0 0 65.60881778 82.79381333z"  horiz-adv-x="1024" />

    
    <glyph glyph-name="wode-select" unicode="&#59000;" d="M861.52533333-59.118933330000004H162.47466667a32.768 32.768 0 0 0-32.768 32.83626666C131.9936 183.05706667000004 303.0016 351.06133333 512 349.18399999999997c40.17493333 0 80.11093333-6.21226667 118.40853333-18.36373333a32.83626667 32.83626667 0 0 0-19.89973333-62.60053334A325.18826667 325.18826667 0 0 1 512 283.57973332999995c-160.08533333 1.39946667-295.66293333-117.8624-315.01653333-277.02613333H827.05066667a302.93333333 302.93333333 0 0 1-65.536 156.8768 316.55253333 316.55253333 0 0 1-68.36906667 63.8976 32.90453333 32.90453333 0 0 0 37.34186667 54.0672c31.3344-21.4016 59.25546667-47.44533333 82.80746666-77.24373333A365.84106667 365.84106667 0 0 0 894.29333333-26.282666670000026a32.768 32.768 0 0 0-32.768-32.83626666zM516.33493333 297.13066667c-149.43573333-1.2288-271.7696 117.89653333-273.68106666 266.51306666 0 150.28906667 122.53866667 272.14506667 273.68106666 272.14506667 151.17653333 0 273.68106667-121.856 273.68106667-272.14506667-1.91146667-148.61653333-124.24533333-267.74186667-273.68106667-266.51306666z m0 468.13866666c-113.32266667 1.19466667-206.30186667-88.95146667-208.00853333-201.6256 0-114.24426667 93.14986667-206.848 208.00853333-206.848 114.8928 0 208.00853333 92.60373333 208.00853334 206.848-1.70666667 112.67413333-94.65173333 202.82026667-208.00853334 201.6256zM608.18773333 533.5381333299999a25.6 25.6 0 0 0 44.37333334-25.56586666A162.06506667 162.06506667 0 0 0 512 426.7008a162.06506667 162.06506667 0 0 0-140.3904 80.9984 25.6 25.6 0 0 0 44.30506667 25.63413333A110.86506667 110.86506667 0 0 1 512 477.9008c40.1408 0 76.52693333 21.504 96.18773333 55.63733333z"  horiz-adv-x="1024" />

    
    <glyph glyph-name="subscript" unicode="&#58896;" d="M-103.103 1046.8029999999999h1285.438v-1321.477l-1285.438 1321.477z"  horiz-adv-x="1024" />

    
    <glyph glyph-name="share" unicode="&#58889;" d="M751.968 271.904c-55.68 0-103.456-31.968-127.392-78.24l-257.216 156.288c10.336 19.872 16.736 42.08 16.736 66.016 0 16.352-3.328 31.776-8.32 46.432L645.28 608c26.368-29.312 64.192-48.096 106.688-48.096 79.552 0 144 64.48 144 144s-64.448 144-144 144c-79.488 0-144-64.48-144-144 0-13.952 2.592-27.168 6.304-39.904l-271.84-146.848c-26.08 26.4-62.272 42.816-102.368 42.816-79.52 0-144-64.48-144-144s64.48-144 144-144c32.064 0 61.408 10.848 85.344 28.576l282.656-171.744c0-0.32-0.096-0.608-0.096-0.864 0-79.52 64.512-144 144-144 79.552 0 144 64.48 144 144S831.52 271.904 751.968 271.904zM751.968 783.904c44.128 0 80-35.904 80-80s-35.872-80-80-80-80 35.904-80 80S707.84 783.904 751.968 783.904zM240.064 335.96799999999996c-44.096 0-80 35.904-80 80s35.904 80 80 80 80-35.904 80-80S284.192 335.96799999999996 240.064 335.96799999999996zM751.968 47.903999999999996c-44.128 0-80 35.872-80 80s35.872 80 80 80 80-35.872 80-80S796.096 47.903999999999996 751.968 47.903999999999996z"  horiz-adv-x="1024" />

    
    <glyph glyph-name="collected" unicode="&#58884;" d="M752-43.200000000000045c-9.6 0-20.8 3.2-30.4 8l-208 104L304-35.200000000000045c-20.8-11.2-48-9.6-67.2 4.8-19.2 14.4-30.4 40-25.6 64l43.2 224-164.8 153.6c-17.6 17.6-24 44.8-17.6 67.2 8 24 27.2 41.6 52.8 44.8l228.8 41.6 102.4 208c11.2 22.4 33.6 36.8 57.6 36.8s48-14.4 57.6-36.8l102.4-208 228.8-40c24-3.2 44.8-20.8 51.2-44.8 8-24 1.6-49.6-16-67.2l-164.8-155.2 41.6-224c4.8-25.6-6.4-49.6-25.6-64-9.6-8-22.4-12.8-36.8-12.8Z"  horiz-adv-x="1024" />

    
    <glyph glyph-name="collect" unicode="&#58951;" d="M512.306 798.21v-58.382c0.73 0 2.068-0.609 2.676-1.095 0.365-0.73 0.608-1.46 0.973-2.068l99.615-202.392c8.27-16.784 23.961-28.46 42.327-31.745l222.582-38.921c0.73-0.122 1.582-0.244 2.311-0.365 0.365 0 0.973-0.487 1.095-0.852 0.243-1.094 0.608-2.31 0.973-3.405 0.243-0.73 0.973-2.92-1.095-5.352L724.55 303.54200000000003c-14.474-13.623-21.042-33.691-17.393-53.152l40.503-217.96v-0.122c0.365-2.19-1.46-4.014-2.554-4.865-0.244-0.244-0.487-0.365-0.73-0.608-0.973 0.243-2.19 0.73-3.527 1.337L538.457 129.36800000000005c-8.271 4.136-17.15 6.203-26.15 6.203-8.88 0-17.758-2.067-25.908-6.081L282.426 28.293999999999983c-0.608-0.243-1.094-0.608-1.702-0.851-0.122 0-0.609-0.244-1.338-0.244-0.73 0-1.338 0.122-1.46 0.244-1.338 1.094-2.432 3.284-2.554 4.378v0.122l42.084 218.082c3.77 19.704-2.798 40.016-17.515 53.76L140.728 452.052c-1.46 1.703-2.19 4.987-2.068 6.933 0.608 1.338 1.216 1.946 1.46 2.189 0.121 0.122 0.365 0.243 1.094 0.365 1.095 0.122 2.19 0.243 3.163 0.486l222.582 40.503c18.244 3.284 33.813 15.082 41.962 31.624L508.414 736.3c1.338 2.554 3.406 3.406 3.77 3.406V798.21m0.122 0c-23.352 0-45.124-13.988-56.07-35.76L356.62 560.06l-222.583-40.503c-24.934-3.162-43.543-20.19-51.327-43.543-6.204-21.772 0-48.287 17.15-65.437l160.307-149.604-42.084-217.96c-4.622-23.354 6.203-48.288 24.934-62.275 10.46-7.906 23.475-11.798 36.368-11.798 10.095 0 20.069 2.432 28.948 7.176l203.972 101.196 202.392-101.196c9.366-4.622 20.19-7.784 29.556-7.784 13.988 0 26.515 4.622 35.76 12.406 18.73 13.987 29.555 37.34 24.933 62.274l-40.502 217.96 160.308 151.065c17.15 17.15 23.352 42.083 15.568 65.436-6.203 23.353-26.515 40.503-49.868 43.544l-222.582 38.921-99.615 202.392c-9.244 21.772-32.597 35.88-55.95 35.88z"  horiz-adv-x="1024" />

    
    <glyph glyph-name="petLife" unicode="&#58892;" d="M947.230546-62.57082500000001L672.522973-62.57082500000001c-4.541433 45.753043-35.850509 303.95571-172.181501 410.585239-0.118704 3.415796-0.185218 7.314593-0.24764 10.980076-0.64673 38.98285-1.860371 111.544469-62.792115 137.1568l-19.566638 8.225335-10.905374-18.340717c-17.751293-29.844725-39.609113-64.971757-48.099485-76.558653-4.571109-0.926092-12.473079-1.868557-19.460214-2.659573 6.080485 42.639123 11.17348 113.240087-19.361977 120.94149C84.36341 577.268772 128.528282 691.138192 128.528282 691.138192s-0.613984-0.309038-1.456165-0.309038c-2.530636 0-7.130398 2.784416-3.450589 25.063839 3.678786 22.277376 15.641235 25.063839 27.601638 25.063839 3.987824 0 7.974625-0.311085 11.655458-0.311085 9.372461-1.89107 18.20871-2.697435 26.538423-2.697435 35.295877 0 61.570287 14.492062 81.419358 22.500457 4.907777 29.705556 34.350342 34.656311 58.886155 34.656311 15.066137 15.20019 35.916001 36.236296 93.618191 36.236296 17.470907 0 38.319747-1.928932 63.411215-6.532787 89.804329-16.47216 132.695185-79.588663 137.54054-171.142845-30.419823-19.930935-52.959166-43.388183-67.318198-76.321246-2.461051-5.785773-2.303462-5.886057-5.196349-16.08842-15.994276-13.938454-109.020996-39.004339-151.557788 5.069459-1.267876 1.245364-0.953721 0.907673-1.597381 1.76725l0.104377 0.063445c-7.486508 22.818705-2.352581 116.118648 70.179362 200.494337l-3.567245 3.400446c-82.668815-84.873016-92.948949-195.746196-77.32204-214.729549 20.394493-21.552875 44.992727-30.455639 75.502601-32.57593 40.494273-2.641153 97.878215 10.410094 105.655342 29.753651 3.394307 12.122085 4.909823 16.444531 12.239765 29.698392 2.628874 4.922103 11.339256 16.225543 14.092973 19.268856 1.901303 2.078335 13.047154 15.027252 29.169343 26.585495-0.963954-64.86738-14.663978-114.446565 73.082482-216.160131C878.901321 203.921645 936.695608-10.347415999999953 947.230546-62.57082500000001zM221.764779 270.31886799999995c19.628036 14.852266 29.442566 64.35982 44.164872 89.11462 14.722306 24.752754 98.143251 19.804045 107.958804 29.703509 9.81453 9.901511 53.978379 84.164888 53.978379 84.164888 58.886155-24.7548 44.164872-113.868397 49.072649-138.623197 132.458801-93.546559 165.583223-347.296821 170.895205-397.249513L309.312718-62.57082500000001c14.371312 31.166837 49.345871 114.711602 44.946678 154.660452-4.907777 44.556798-68.702732 54.456263-88.330768 59.407018-53.978379-14.851243-49.072649 19.805068-53.978379 29.707602-19.630083 14.852266-14.722306 29.703509-24.535813 49.507554C177.599907 250.51482299999998 202.136743 255.46557800000005 221.764779 270.31886799999995z"  horiz-adv-x="1024" />

    
    <glyph glyph-name="disease" unicode="&#59081;" d="M698.2 790.1C628 790.1 561.7 761 513 708c-0.5-0.6-1.4-0.6-1.9 0-48.7 52-115 82.1-185.2 82.1C181.5 790.1 64 665.9 64 513.4c0-27.1 3.8-51.9 10.1-74.5 0.2-0.6 0.7-1 1.3-1h177.1c6.2 0 66.6 136.3 67.7 138.8v0.1c25.7 51.4 78.8 40.8 89.6-16.2l31.8-168.4c2.1-10.9 16.9-12.6 21.4-2.5l23.7 52.9c23.7 51.6 76.7 45.3 90.9-10.6l7.6-29.8c2.4-9.3 14.4-11.8 20.3-4.2l23.2 30c6.6 9.1 17.2 14.5 28.5 14.5h133.7c19.4 0 35.1-18 35.1-40.1s-15.7-40.1-35.1-40.1h-94.7c-14.3 0-27.8-6.8-36.3-18.3L626 298.4c-30.4-42-79.8-30.5-93.1 21.9l-3.1 12.1c-2.1 8.2-13.3 9-16.6 1.3l-31.7-74.9c-24.5-53.3-78.2-43.9-89.2 14.1L359.7 445c-2 10.5-16.2 12.7-21.2 3.2L301.7 378c-6.2-12.4-18.9-20.2-32.7-20.2H111c-1 0-1.7-1.1-1.2-2 9.4-16.3 19.1-31 27.8-44.4 91.6-139.9 321.6-312.5 331.5-318.8 12.9-9.5 27.9-14.7 42.8-14.7 15.5-0.1 30.6 5.1 42.8 14.7 10 7.4 238.9 179.9 331.5 318.8 30.9 47.3 73.7 111.5 73.7 202 0.1 152.5-117.4 276.7-261.7 276.7z m0 0"  horiz-adv-x="1024" />

    
    <glyph glyph-name="cat-ao" unicode="&#58938;" d="M942.08 574.4639999999999c-1.024 1.024-1.024 3.072-1.024 4.096-10.24 115.712-37.888 187.392-51.2 217.088-4.096 8.192-14.336 10.24-20.48 4.096-25.6-23.552-87.04-79.872-139.264-137.216-4.096-4.096-9.216-5.12-14.336-3.072-34.816 12.288-155.648 36.864-370.688 12.288-4.096 0-8.192 1.024-10.24 3.072-15.36 14.336-71.68 67.584-146.432 138.24-6.144 6.144-15.36 5.12-20.48-2.048-18.432-29.696-70.656-132.096-75.776-200.704 0-1.024 0-2.048-1.024-4.096C77.824 578.56-101.376 226.30399999999997 82.944 87.03999999999996l2.048-2.048c10.24-7.168 21.504-14.336 33.792-20.48 9.216-5.12 19.456-8.192 29.696-11.264 15.36-7.168 32.768-13.312 50.176-17.408v-10.24s-8.192-67.584 62.464-73.728c59.392-5.12 63.488 38.912 63.488 66.56h370.688c0-28.672 4.096-71.68 63.488-66.56 70.656 6.144 62.464 73.728 62.464 73.728v10.24c32.768 7.168 65.536 15.36 91.136 27.648h1.024c222.208 99.328 44.032 480.256 28.672 510.976zM270.336 237.56799999999998c-94.208 0-169.984 76.8-169.984 169.984 0 94.208 76.8 169.984 169.984 169.984S440.32 502.784 440.32 408.576s-75.776-171.008-169.984-171.008z m222.208-65.536c-18.432 0-32.768 24.576-32.768 55.296 0 30.72 14.336 55.296 32.768 55.296 18.432 0 32.768-24.576 32.768-55.296 0-30.72-14.336-55.296-32.768-55.296z m279.552 55.296c-88.064 0-160.768 71.68-160.768 160.768S684.032 547.8399999999999 772.096 547.8399999999999s160.768-71.68 160.768-160.768-71.68-159.744-160.768-159.744zM203.776 440.32a55.296 32.768 90 1 1 65.536 0 55.296 32.768 90 1 1-65.536 0ZM711.68 419.84a55.296 32.768 90 1 1 65.536 0 55.296 32.768 90 1 1-65.536 0Z"  horiz-adv-x="1024" />

    
    <glyph glyph-name="point" unicode="&#58881;" d="M512 576a192.064 192.064 0 0 0 0-384 192 192 0 0 0 0 384z"  horiz-adv-x="1024" />

    
    <glyph glyph-name="imageText" unicode="&#59036;" d="M512-125.37599999999998c-280.896 0-509.312 228.608-509.312 509.44S231.104 893.376 512 893.376s509.376-228.48 509.376-509.312-228.48-509.44-509.376-509.44zM512 832.576C264.768 832.576 63.552 631.296 63.552 384.064A448.96 448.96 0 0 1 512-64.38400000000001c247.232 0 448.512 201.152 448.512 448.448C960.512 631.296 759.232 832.576 512 832.576zM229.056 345.72799999999995s34.752 289.152 102.272 284.416c19.584-1.472 46.208-34.944 98.752-163.2 8.256-20.352 52.288-91.52 84.032-39.36 12.544 20.672 19.456 61.312 40.32 68.224 11.072 3.84 46.784-6.336 113.216-150.08H229.056zM583.488 667.456m-51.328 0a51.328 51.328 0 1 1 102.656 0 51.328 51.328 0 1 1-102.656 0ZM428.288 124.73599999999999H258.176a29.12 29.12 0 0 0 0 58.368h170.112a29.12 29.12 0 0 0 0-58.368zM808.896 230.84799999999996H258.176a29.12 29.12 0 0 0 0 58.368h550.656a29.184 29.184 0 0 0 0.064-58.368z"  horiz-adv-x="1024" />

    
    <glyph glyph-name="hypermarket" unicode="&#58911;" d="M895.955742 708.447417c-11.351536 3.515057-23.765263 4.945639-35.7052 4.995781-94.78476 0.387833-189.56952 0.214894-284.35735 0.214894-96.326882 0-192.649672 0-288.972461 0.011256-2.495844 0-5.002944 0.065492-7.494695-0.080841-15.774265-0.914836-27.860535-16.096607-25.25315-31.674397 0.354064-2.115174 0.896416-4.093225 1.582031-5.953595 12.873192-47.686069 25.738198-95.374184 38.614459-143.058207 10.510378-38.911218 20.947078-77.836763 31.556717-116.722398 2.877537-10.536984 10.509355-17.935488 19.87363-20.315698l-0.11461-0.556679c1.020236-0.001023 2.040473-0.00307 3.060709-0.005117 2.057869-0.281409 4.173043-0.352017 6.330172-0.144286 0.367367 0.035816 0.724501 0.085958 1.085728 0.13303 47.659463-0.071631 95.318926-0.150426 142.977365-0.217964 40.305985-0.054235 80.605829-0.184195 120.912837-0.135076 14.367219 0.019443 25.670659 9.387811 27.926026 22.623253 3.180436 18.646686-9.934257 32.946366-30.328749 32.972972-81.168648 0.106424-162.336272 0.206708-243.503896 0.312108-18.671245 69.110007-37.34556 138.217968-56.016805 207.327976 179.178869-0.005117 358.357737 0.002047 537.537629-0.045025 5.941316 0 11.882632-0.673335 17.827017-0.934279 3.418866-0.154519 4.941546-1.715061 4.291746-5.15337-1.034563-5.460362-1.723248-11.021008-3.187599-16.361643-25.237801-91.989087-50.693566-183.92087-75.79629-275.948843-6.302543-23.106254-11.582803-46.489824-17.242709-69.77004-3.257184-13.385868-14.666024-21.38403-30.955013-21.38403-145.736199-0.008186-291.476491-0.008186-437.21269-0.004093-1.533936 0-3.080152-0.041956-4.609994 0.065492-14.774495 1.034563-24.945135 10.594289-27.018354 25.217335-0.698918 4.930289-1.24127 9.940396-2.564405 14.71719-35.012422 126.32408-70.116941 252.621555-105.202017 378.923122-10.789741 38.83447-21.506826 77.68429-32.397874 116.492154-3.883447 13.83203-15.947204 22.198581-29.30135 20.810978-18.815531-1.953492-29.059849-18.430768-23.599488-38.081317 41.319058-148.681274 82.683141-297.347199 123.936707-446.047916 4.971222-17.923208 11.024078-35.765575 13.685697-54.066383 6.051833-41.62605 40.171931-73.469292 82.337263-73.52762 148.812257-0.199545 297.627584-0.176009 446.439842-0.011256 39.772842 0.041956 73.358775 28.233018 81.122599 67.205635 1.049912 5.26491 1.292436 10.725272 2.706645 15.873526 27.221991 99.207489 54.689576 198.345394 81.761142 297.593815 5.036713 18.469654 9.940396 37.162388 12.493545 56.07718C936.823522 676.800649 921.546583 700.5219099999999 895.955742 708.447417zM369.680621 157.34688700000004c-46.628994 2.63399-85.544305-33.066093-88.044242-80.771605-2.337231-44.62536 33.912367-83.645049 79.945797-86.055958 44.471864-2.322905 84.636632 33.761941 86.759993 77.95342C450.606745 115.58985399999995 415.963737 154.73233900000002 369.680621 157.34688700000004zM365.012298 46.18104100000005c-15.427364 0.046049-27.79402 12.56313-27.64871 27.979238 0.150426 15.407921 12.801561 27.90249 28.02938 27.66713 15.243169-0.23843 27.798113-13.169951 27.506471-28.332279C392.606773 58.42899299999999 380.058992 46.13908600000002 365.012298 46.18104100000005zM699.106422 157.44000800000003c-46.221718 0.096191-83.597977-37.235043-83.60207-83.495646 0-45.987381 37.184901-83.36057 83.071997-83.48746 46.124504-0.12689 83.60207 37.307697 83.609233 83.529415C782.193769 119.97062800000003 744.989425 157.34381699999994 699.106422 157.44000800000003zM698.671517 46.18104100000005c-15.130605 0.103354-27.501354 12.428054-27.616988 27.52489-0.119727 15.331173 12.366655 28.02938 27.655873 28.124548 15.262612 0.092098 27.836999-12.504802 27.832905-27.878954C726.539214 58.521090999999956 714.049762 46.07768699999997 698.671517 46.18104100000005z"  horiz-adv-x="1024" />

    
    <glyph glyph-name="empty" unicode="&#58999;" d="M490.644111 250.48821699999996c-2.940982 1.000793-6.182816 0.007163-8.072863-2.463098l-52.761668-68.923766c-3.083222-4.019547-7.961322-6.4192-13.047154-6.4192-2.860141 0-5.672186 0.73985-8.144494 2.162246L166.880263 312.80040099999997c-2.240017 1.279133-5.006014 1.269923-7.230682-0.031722-2.240017-1.287319-3.607154-3.678786-3.607154-6.261611l0-107.602693c0-2.589988 1.3743-4.981455 3.615341-6.277984l325.034794-188.047864c1.12052-0.650823 2.376117-0.975211 3.631714-0.975211 1.246387 0 2.494821 0.324388 3.623527 0.967024 2.241041 1.296529 3.623527 3.696182 3.623527 6.277984L495.571331 243.623879C495.570307 246.72859000000005 493.58407 249.48844699999995 490.644111 250.48821699999996zM864.338139 312.768679c-2.223644 1.301645-4.981455 1.310855-7.230682 0.031722L615.354438 174.827003c-2.453888-1.404999-5.260817-2.14485-8.120958-2.14485-5.094018 0-9.972119 2.391467-13.047154 6.412037l-52.761668 68.930929c-1.89107 2.470261-5.14109 3.463891-8.080026 2.463098-2.939959-1.000793-4.919033-3.759627-4.919033-6.864338l0-232.776577c0-2.580778 1.375324-4.981455 3.623527-6.277984 1.12052-0.642636 2.366907-0.967024 3.622504-0.967024 1.248434 0 2.503007 0.324388 3.623527 0.975211l325.034794 188.047864c2.241041 1.296529 3.615341 3.687996 3.615341 6.277984L867.945293 306.506045C867.946316 309.08989299999996 866.572016 311.48136 864.338139 312.768679zM960.237279 607.007073c-0.38988 2.347464-1.907443 4.358261-4.060479 5.374404L628.980783 766.7195879999999c-2.622734 1.232061-5.728468 0.791016-7.897877-1.128707l-93.516884-82.755796-12.17939 6.460132c-2.122337 1.131777-4.671393 1.131777-6.79373 0l-12.181437-6.464225-93.499487 82.760912c-2.169409 1.918699-5.26798 2.359744-7.889691 1.128707L67.819107 612.382501c-2.15406-1.016143-3.671623-3.02694-4.061502-5.374404-0.381693-2.344395 0.405229-4.735861 2.113127-6.388501l97.639784-94.384647-15.382339-8.169053c-1.216711-0.642636-2.225691-1.62808-2.90926-2.828418l-53.029774-93.649913c-1.962701-3.476171-0.748037-7.886621 2.716878-9.864672l312.042899-178.109514c3.146667-1.804089 7.142677-0.994654 9.344832 1.88186l65.934688 86.11838c1.280156 1.683339 1.772366 3.830235 1.343601 5.895267-0.436952 2.066055-1.747807 3.845585-3.599991 4.862751L170.209078 483.04376l329.984526 175.098947 0.00921-215.297484-81.009012-46.944172c-2.257413-1.307785-3.638877-3.734044-3.616364-6.345522 0.032746-2.613524 1.462305-5.004991 3.751441-6.268774l89.161692-49.14121c2.176572-1.208525 4.814656-1.208525 7.000438 0l89.168856 49.14121c2.288113 1.263783 3.718695 3.65525 3.750417 6.272867 0.023536 2.610454-1.350764 5.03262-3.615341 6.340405l-81.009012 46.944172 0.008186 215.301578 329.984526-175.10304L544.016693 312.37061300000005c-1.853208-1.017166-3.163039-2.796696-3.599991-4.862751-0.429789-2.065032 0.056282-4.211928 1.342578-5.895267l65.936735-86.11838c1.413186-1.843998 3.567245-2.835581 5.760191-2.835581 1.222851 0 2.463098 0.310062 3.583618 0.954745L929.080675 391.721869c3.474125 1.978051 4.689812 6.388501 2.717901 9.864672l-53.038984 93.654007c-0.682545 1.199315-1.691525 2.180666-2.907213 2.824325l-15.359826 8.169053 97.630574 94.384647C959.833073 602.271212 960.626135 604.6637020000001 960.237279 607.007073z"  horiz-adv-x="1024" />

    
    <glyph glyph-name="success" unicode="&#58890;" d="M512.697 820.556c-247.54 0-448.208-200.668-448.208-448.208s200.668-448.208 448.208-448.208c247.54 0 448.208 200.668 448.208 448.208 0 247.54-200.668 448.208-448.208 448.208zM782.651 497.675l-310.141-316.86c-1.057-1.586-2.234-3.101-3.62-4.505-12.156-12.346-31.862-12.346-44.026 0l-154.053 156.424c-12.147 12.347-12.147 32.355 0 44.684 12.155 12.347 31.861 12.347 44.016 0l131.584-133.592 292.213 298.55c12.165 12.346 31.862 12.346 44.026 0 12.147-12.346 12.147-32.353 0-44.701z"  horiz-adv-x="1024" />

    
    <glyph glyph-name="signPosition" unicode="&#58907;" d="M641.95086664 92.68497718000003c-35.8800924-41.82375511-62.76289718-69.71534669-66.85257336-74.62295811-13.85037001-13.93216354-32.60835145-22.13878042-51.36633288-22.13878041a72.8507651 72.8507651 0 0 0-50.54839764 21.32084517 1599.17244624 1599.17244624 0 0 0-66.85257337 74.6229581c-79.0670729-17.231169-132.88721149-54.12004817-132.88721149-94.30793281 0-59.0549241 112.49335958-106.60422589 251.10611773-106.60422588s251.10611774 48.39450152 251.10611775 106.60422588c-1.63587047 41.00581989-55.45600907 77.10402834-133.70514674 95.12586806z m-119.03684148-72.98708763a26.99186282 26.99186282 0 0 1 20.39385191 8.20661688C556.34031184 41.83666994999999 862.87517413 364.13041781000004 862.87517413 546.17553705 862.87517413 733.97346745 709.62137524 888.15425961 522.91402516 888.15425961S182.95287618 735.63660243 182.95287618 546.17553705c0-182.04511924 306.5348623-505.15680234 319.56729706-518.27103062 5.72554666-5.72554666 12.24176404-8.20661688 20.39385192-8.20661688z m-137.76755841 526.4776475c0 77.07676383 61.94496195 138.58549365 137.76755841 138.58549365s137.76755841-62.32666506 137.76755841-138.58549365c0-77.07676383-61.15429121-138.58549365-137.76755841-138.58549365s-137.76755841 62.32666506-137.76755841 138.58549365z"  horiz-adv-x="1024" />

    
    <glyph glyph-name="sign" unicode="&#58880;" d="M238.2 627.2c-36.3 8.9-63.3 25.7-64 55.1-1.4 36.8 41.1 97 102 83.6 63-14.2 107.6-63 140.9-104.8 34 42.5 82.2 97.7 148.7 106.2 55.2 7.1 100.6-48.2 94.9-84.3-5-31.9-35.4-48.9-74.4-57.4M616.1 671c21.2 26.9-19.8 82.9-64.4 62.3-42.5-19.8-73-52.4-99.2-84.3 22.7-2.1 45.3-2.8 68-1.4 28.3 1.4 79.3 3.5 95.6 23.4zM282.5 752.8c-30.5 12-48.2-0.7-60.9-22-7.1-12-14.2-27.6-3.6-39.7 29-30.4 109.8-27.6 163.6-22.6-25.4 31.9-56.6 67.3-99.1 84.3zM733.4 158.10000000000002H131.9c-5.5 0-10 4.5-10 10V529.3c0 5.5 4.5 10 10 10h601.5c5.5 0 10-4.5 10-10v-361.2c0-5.5-4.5-10-10-10zM758.4 552.5H106.8c-5.5 0-10 4.5-10 10v55.7c0 5.5 4.5 10 10 10h651.6c5.5 0 10-4.5 10-10v-55.7c0-5.5-4.5-10-10-10zM406.7 620.3h51.8V158h-51.8zM545 191.29999999999995c0-105.6 85.5-191.2 191-191.2 105.6 0 191.2 85.5 191.2 191v0.1c0 105.6-85.5 191.2-191 191.2-105.6 0-191.2-85.5-191.2-191v-0.1zM756.7 293.20000000000005c-0.2 0.7-4.1 16.4-20.2 25.2-6.6 3.6-14.5 5.4-23.5 5.4-6.8 0-11.8-1.1-12-1.2l-2.6-0.6-69.6-172.7 5.4-76.3 59.7 52.4L757 291.79999999999995l-0.3 1.4zM780 241.20000000000005h67.8v-10.1H780v10.1z m-27.8-64.3h95.5V187h-95.5v-10.1z m-21.9-56.3h117.4v10.1H730.3v-10.1zM851.7 116.60000000000002H726.3v18.1h125.4v-18.1z m-117.4 8h109.4v2.1H734.3v-2.1z m117.4 48.3H748.2V191h103.5v-18.1z m-95.5 8h87.5V183h-87.5v-2.1z m95.5 46.2H776v18.1h75.8v-18.1z m-67.7 8h59.8v2.1H784v-2.1z"  horiz-adv-x="1024" />

    
    <glyph glyph-name="coin" unicode="&#58885;" d="M705.6 684.6l-11.3 8.6c4.6 9.6 9.1 24.3 11.3 27.6l51.3 53.3c3.7 5.6 4 12.7 0.9 18.6-3.1 5.9-9.3 9.6-16 9.6H506.5c-6.7 0-12.8-3.7-16-9.6-3.1-5.9-2.8-13 0.9-18.6l51.3-53.3c2.2-3.3 6.7-18 11.3-27.6l-11.3-8.6c-87.2-67.9-153.9-206-153.9-307.8 0-153.9 119.7-153.9 235.4-153.9s235.4 0 235.4 153.9c0 101.8-66.8 239.9-154 307.8zM542.7 720.8h163v-36.2h-163zM624.9 459.5m-102.2 0a102.2 102.2 0 1 1 204.4 0 102.2 102.2 0 1 1-204.4 0ZM279 251.79999999999995s32.3-8.8 49.9 14.7l31.5 28.2c15.5 13.8 35.7 21 56.5 19.9 64-3.2 208.2-9.1 294-0.7 9.3 0.9 16-8.6 12.2-17.1l-4.9-10.9c-13.3-29.9-42.9-49.1-75.5-49.1h-77.5s-28.1 6.2-32.2-31.4v-18.6c0-14.8 12-26.8 26.8-26.8h102c37.1 0 73.1 12.2 102.4 34.9 17.5 13.6 37.7 30.5 57 49.4 13.8 13.6 32.5 21 51.9 21h99.2c13.1 0 26-3.5 37.4-10.2 10.9-6.4 12.1-21.7 2.4-29.7L840.2 83c-34.4-28.4-77.6-44-122.2-44H279V251.79999999999995zM264.4 4.100000000000023h-48c-10.6 0-19.2 8.6-19.2 19.2V292c0 10.6 8.6 19.2 19.2 19.2h48c10.6 0 19.2-8.6 19.2-19.2v-268.8c0-10.5-8.5-19.1-19.2-19.1zM216.5-34.299999999999955h-192c-10.6 0-19.2 8.6-19.2 19.2V330.4c0 10.6 8.6 19.2 19.2 19.2h192c10.6 0 19.2-8.6 19.2-19.2v-345.5c0-10.6-8.6-19.2-19.2-19.2zM665.1 440.9c0-8.7-2.9-15.8-8.7-21.2-5.8-5.4-13.4-8.7-22.9-9.9v-16.5h-14.8v15.9c-14.5 0.5-26.1 5.1-34.7 13.8l13.2 13.2c5.6-5.6 13.4-8.5 23.4-8.8V454l-4.7 0.6c-8.8 1.2-15.6 4.1-20.3 8.8-5 5-7.5 11.8-7.5 20.4 0 8.5 2.7 15.6 8.2 21.4 5.4 5.7 12.9 9.1 22.4 10.1v13.2h14.8v-13.1c11.8-0.7 21.4-4.7 28.9-12l-12.9-12.8c-4.3 4.1-10.3 6.5-18.1 7.1v-25.6l5.6-0.9c8.9-1.4 15.6-4.1 20-8.2 5.4-5.1 8.1-12.5 8.1-22.1zM620.6 473v24.5c-4.1-0.6-7.3-2.1-9.5-4.4-2.2-2.4-3.3-5.2-3.3-8.5 0-3 1-5.5 3.1-7.5 2.3-2.2 5.5-3.5 9.7-4.1z m24.6-32.7c0 3.8-1.1 6.8-3.2 8.8-1.9 1.8-5.3 3-10.4 3.8v-25.3c9 1.2 13.6 5.4 13.6 12.7z"  horiz-adv-x="1024" />

    
    <glyph glyph-name="time" unicode="&#58937;" d="M727.04 246.93759999999997a31.5392 31.5392 0 0 0-10.5984 1.8432l-228.864 81.664a31.5392 31.5392 0 0 0-20.9408 29.696V543.5391999999999a31.5392 31.5392 0 1 0 63.0784 0v-161.1776L737.28 308.17280000000005a31.5392 31.5392 0 0 0-10.5984-61.44zM509.8496 800.4096A416.9728 416.9728 0 1 1 926.72 383.43679999999995a417.4336 417.4336 0 0 1-416.8704 416.9728z m0-767.6928a350.72 350.72 0 1 0 350.72 350.72 350.72 350.72 0 0 0-350.72-350.6688z"  horiz-adv-x="1024" />

    
    <glyph glyph-name="home" unicode="&#58886;" d="M915.477 409L536.379 788.01c-13.464 13.464-35.294 13.376-48.759-0.089L108.521 409c-10.26-10.26-12.69-25.858-7.312-38.134 0.301-0.778 0.662-1.524 1.08-2.235l0.014-0.029c0.025-0.04 0.062-0.105 0.103-0.177l0.007 0.002c2.693-4.419 7.542-7.38 13.096-7.38 0.493 0 0.978 0.005 1.459 0.05 0.018-0.024 0.042-0.097 0.06-0.097H183v-356.32c0-19.366 16.243-34.68 35.609-34.68h585.597C823.572-30 838-14.686000000000035 838 4.67999999999995V361h67.274c0.809 0 1.812 0.023 2.609 0.023 5.557 0 10.867 2.904 13.559 7.328 0.134-0.025-0.133 0.023 0 0 6.984 12.6 5.04 29.645-5.965 40.649zM630 23H391V234.36c0 65.845 53.655 126.236 119.5 126.236S630 300.20500000000004 630 234.36V23z"  horiz-adv-x="1024" />

    
    <glyph glyph-name="gps" unicode="&#58893;" d="M512 827.8089219999999c-171.531702 0-310.666552-139.133827-310.666552-310.666552 0-232.999658 310.666552-576.951291 310.666552-576.951291s310.666552 343.951633 310.666552 576.951291C822.665529 688.675094 683.531702 827.8089219999999 512 827.8089219999999zM512 406.190395c-61.245899 0-110.951975 49.706075-110.951975 110.951975S450.754101 628.095367 512 628.095367 622.951975 578.388269 622.951975 517.1423689999999 573.245899 406.190395 512 406.190395z"  horiz-adv-x="1024" />

    
    <glyph glyph-name="right" unicode="&#59116;" d="M851.50196956 385.74917593L429.94471806 839.85173606H235.44759061l421.55615073-454.10256013-421.55615073-421.53996898h194.49826531L851.50196956 385.74917593zM851.50196956 385.74917593"  horiz-adv-x="1000" />

    
    <glyph glyph-name="add" unicode="&#58916;" d="M808.407 440.32v-112.64c0-8.479-6.871-15.36-15.36-15.36h-208.21v-208.21c0-8.489-6.881-15.36-15.36-15.36h-112.64c-8.479 0-15.36 6.871-15.36 15.36V312.32000000000005h-208.21c-8.489 0-15.36 6.881-15.36 15.36V440.32c0 8.479 6.871 15.36 15.36 15.36h208.21V663.89c0 8.489 6.881 15.36 15.36 15.36h112.64c8.479 0 15.36-6.871 15.36-15.36v-208.21h208.21c8.489 0 15.36-6.881 15.36-15.36z"  horiz-adv-x="1024" />

    


  </font>
</defs>
</svg>
